<svg width="14" height="14" viewBox="0 0 14 14" fill="none" xmlns="http://www.w3.org/2000/svg">
<path fill-rule="evenodd" clip-rule="evenodd" d="M3.76519 5.5348C3.61477 5.38438 3.4362 5.26507 3.23967 5.18366C3.04314 5.10226 2.8325 5.06037 2.61978 5.06037C2.40706 5.06038 2.19642 5.10228 1.99989 5.18369C1.80336 5.2651 1.6248 5.38442 1.47439 5.53485C0.841855 6.1674 0.841879 7.19297 1.47441 7.82553L4.67438 11.0256C4.82479 11.176 5.00335 11.2954 5.19987 11.3768C5.3964 11.4582 5.60703 11.5001 5.81975 11.5001C6.03247 11.5001 6.2431 11.4582 6.43963 11.3768C6.63616 11.2954 6.81472 11.1761 6.96514 11.0257L12.7254 5.26543C13.3579 4.63292 13.358 3.60742 12.7255 2.97482L12.7254 2.97465C12.5749 2.82422 12.3964 2.70488 12.1998 2.62346C12.0033 2.54205 11.7927 2.50013 11.5799 2.50012C11.3672 2.50011 11.1566 2.542 10.96 2.6234C10.7635 2.7048 10.5849 2.82411 10.4345 2.97453L5.95436 7.45463C5.91864 7.49034 5.8702 7.5104 5.81969 7.5104C5.76918 7.5104 5.72073 7.49034 5.68501 7.45463L3.76519 5.5348Z" fill="#9603FC"/>
<path fill-rule="evenodd" clip-rule="evenodd" d="M11.3178 2.52147C11.6524 2.57633 11.9614 2.73485 12.2011 2.97467L12.2013 2.97484C12.8337 3.60744 12.8337 4.63294 12.2012 5.26545L6.44093 11.0257C6.20119 11.2654 5.89226 11.4239 5.55768 11.4787C5.8114 11.5203 6.07138 11.501 6.31612 11.4222C6.56086 11.3434 6.78333 11.2075 6.96514 11.0257L12.7254 5.26545C13.3579 4.63294 13.358 3.60744 12.7255 2.97484L12.7254 2.97467C12.5435 2.79283 12.3211 2.65688 12.0763 2.57807C11.8315 2.49926 11.5715 2.47986 11.3178 2.52147Z" fill="#6917A1"/>
</svg>
