<svg width="15" height="14" viewBox="0 0 15 14" fill="none" xmlns="http://www.w3.org/2000/svg">
<path d="M11.9836 8.98991L9.97469 6.98097L11.9456 5.01013C12.6342 4.32153 12.6342 3.2051 11.9456 2.5165C11.257 1.82783 10.1406 1.82783 9.45195 2.5165L7.48106 4.48739L5.54815 2.55449C4.85955 1.86588 3.74312 1.86588 3.05452 2.55449C2.36591 3.24309 2.36591 4.35952 3.05452 5.04812L4.98736 6.98097L3.01647 8.95186C2.32786 9.64052 2.32786 10.7569 3.01647 11.4456C3.70507 12.1342 4.8215 12.1342 5.5101 11.4456L7.48094 9.47466L9.48982 11.4835C10.1784 12.1722 11.2949 12.1722 11.9835 11.4835C12.6722 10.7949 12.6722 9.67851 11.9836 8.98991Z" fill="#FC0303"/>
<path d="M11.9835 8.98994L9.97466 6.98105L11.9456 5.01022C12.6342 4.32162 12.6342 3.20513 11.9456 2.51658C11.8447 2.41554 11.7319 2.32709 11.6097 2.25317C12.0194 2.93117 11.9317 3.82566 11.3464 4.41096L9.37546 6.38179L11.3843 8.39068C12.0729 9.07928 12.0729 10.1958 11.3843 10.8843C10.6957 11.5729 9.57931 11.5729 8.89071 10.8843L6.88182 8.87543L4.91099 10.8463C4.32563 11.4316 3.4312 11.5194 2.7532 11.1097C2.82709 11.2319 2.91551 11.3446 3.01655 11.4455C3.70516 12.1341 4.82159 12.1341 5.51019 11.4455L7.48103 9.47463L9.48991 11.4835C10.1785 12.1721 11.2949 12.1721 11.9835 11.4835C12.6721 10.795 12.6721 9.67854 11.9835 8.98994Z" fill="#FC0303"/>
<path d="M11.9836 8.98977L9.9747 6.98089L11.9456 5.01006C12.6342 4.32146 12.6342 3.20496 11.9456 2.51642C11.8955 2.46634 11.8425 2.41928 11.7869 2.37549C12.3309 3.06745 12.2839 4.07255 11.646 4.7104L9.6751 6.68123L11.684 8.69011C12.3726 9.37872 12.3726 10.4952 11.684 11.1838C10.9954 11.8723 9.87894 11.8723 9.19034 11.1838L7.18146 9.17487L5.21062 11.1458C4.57271 11.7837 3.56761 11.8306 2.87566 11.2866C2.91944 11.3422 2.96648 11.3953 3.01653 11.4454C3.70513 12.134 4.82156 12.134 5.51017 11.4454L7.481 9.47447L9.48988 11.4834C10.1785 12.1719 11.2949 12.1719 11.9835 11.4834C12.6722 10.7948 12.6722 9.67838 11.9836 8.98977Z" fill="#A11717"/>
</svg>
