<svg width="51" height="50" viewBox="0 0 51 50" fill="none" xmlns="http://www.w3.org/2000/svg">
<g clip-path="url(#clip0_205_53)">
<path d="M47.2035 6.51953H3.08583C1.46142 6.51953 0.144653 7.8363 0.144653 9.46071V40.5391C0.144653 42.1636 1.46142 43.4803 3.08583 43.4803H47.2035C48.8279 43.4803 50.1447 42.1636 50.1447 40.5391V9.46071C50.1447 7.8363 48.8279 6.51953 47.2035 6.51953Z" fill="url(#paint0_linear_205_53)"/>
<path d="M47.2035 43.4803H29.2623V6.51953H47.2035C48.8279 6.51953 50.1447 7.8363 50.1447 9.46071V40.5391C50.1447 42.1636 48.8279 43.4803 47.2035 43.4803Z" fill="url(#paint1_linear_205_53)"/>
<path d="M47.2035 43.4804H3.08583C1.46142 43.4804 0.144653 42.1636 0.144653 40.5392V12.5288H50.1447V40.5392C50.1447 42.1636 48.8279 43.4804 47.2035 43.4804Z" fill="url(#paint2_linear_205_53)"/>
<path d="M47.2035 43.4804H29.2623V12.5288H50.1447V40.5392C50.1447 42.1636 48.8279 43.4804 47.2035 43.4804Z" fill="url(#paint3_linear_205_53)"/>
<path d="M0.144653 38.9705V40.5391C0.144653 42.1635 1.46142 43.4803 3.08583 43.4803H47.2035C48.8279 43.4803 50.1447 42.1635 50.1447 40.5391V38.9705H0.144653Z" fill="url(#paint4_linear_205_53)"/>
<path d="M35.3574 21.0354C31.5087 21.0354 28.3879 24.1553 28.3879 28.0049C28.3879 31.8536 31.5087 34.9734 35.3574 34.9734C39.2061 34.9734 42.3269 31.8535 42.3269 28.0049C42.3269 24.1553 39.2061 21.0354 35.3574 21.0354Z" fill="url(#paint5_linear_205_53)"/>
<path d="M26.6011 32.468V35.4116L34.6699 43.4804H47.2035C48.8279 43.4804 50.1447 42.1636 50.1447 40.5392V32.468H26.6011Z" fill="url(#paint6_linear_205_53)"/>
<path d="M50.1447 40.5391V26.663L44.4052 20.9236H43.9488C41.8312 20.9236 40.1146 22.6403 40.1146 24.7578V27.5838C40.1146 31.0073 38.6927 34.2771 36.1888 36.6118L33.3785 39.2322L37.6266 43.4804H47.2035C48.8279 43.4803 50.1447 42.1635 50.1447 40.5391Z" fill="url(#paint7_linear_205_53)"/>
<path d="M42.2495 21.6461L37.5806 16.9773V21.6461H42.2495Z" fill="url(#paint8_linear_205_53)"/>
<path d="M45.5641 31.2533L44.2595 30.1091C43.9432 29.8314 43.7772 29.416 43.8258 28.9971C43.8634 28.6716 43.8836 28.3406 43.8836 28.0051C43.8836 27.6695 43.8634 27.3377 43.8258 27.0122C43.7772 26.5932 43.9432 26.1788 44.2595 25.9001L45.5641 24.756C46.0069 24.3682 46.1059 23.7173 45.7997 23.2148L44.4052 20.9237C44.2565 20.6803 44.0267 20.497 43.7563 20.406C43.4859 20.3149 43.1921 20.322 42.9264 20.4259L41.3009 21.0649C40.9076 21.2189 40.4648 21.1648 40.1146 20.9284C39.7356 20.6739 39.337 20.4498 38.9227 20.2582C38.5403 20.0822 38.2653 19.7329 38.1929 19.3176L37.8922 17.5977C37.8429 17.3168 37.6962 17.0624 37.4779 16.8789C37.2597 16.6955 36.9837 16.5949 36.6986 16.5947H34.016C33.7309 16.5949 33.4549 16.6955 33.2366 16.8789C33.0183 17.0623 32.8717 17.3168 32.8224 17.5977L32.5217 19.3176C32.4493 19.7329 32.1743 20.0822 31.7919 20.2582C31.3776 20.4498 30.9791 20.6739 30.6 20.9284C30.2499 21.1649 29.807 21.2189 29.4137 21.0649L27.7882 20.4259C27.5225 20.322 27.2287 20.3149 26.9583 20.406C26.6879 20.497 26.4581 20.6803 26.3094 20.9237L24.915 23.2148C24.6088 23.7173 24.7078 24.3682 25.1505 24.756L26.4551 25.9001C26.7714 26.1788 26.9374 26.5933 26.8888 27.0122C26.8512 27.3377 26.831 27.6695 26.831 28.0051C26.831 28.3407 26.8512 28.6716 26.8888 28.9971C26.9374 29.4161 26.7714 29.8314 26.4551 30.1091L25.1505 31.2533C24.9361 31.4413 24.795 31.699 24.7519 31.9809C24.7088 32.2628 24.7665 32.5509 24.915 32.7944L26.3094 35.0855C26.458 35.3291 26.6877 35.5125 26.9582 35.6036C27.2286 35.6946 27.5225 35.6875 27.7882 35.5834L29.4137 34.9452C29.807 34.7903 30.2499 34.8443 30.6 35.0809C30.9786 35.336 31.3772 35.5602 31.7919 35.7511C32.1743 35.9271 32.4493 36.2774 32.5217 36.6927L32.8224 38.4117C32.8715 38.6926 33.0182 38.9472 33.2365 39.1306C33.4548 39.3141 33.7309 39.4146 34.016 39.4146H36.6986C36.9838 39.4146 37.2598 39.3141 37.4781 39.1306C37.6965 38.9472 37.8431 38.6926 37.8922 38.4117L38.1929 36.6927C38.2653 36.2774 38.5403 35.9272 38.9227 35.7511C39.3374 35.5602 39.736 35.3361 40.1146 35.0809C40.4648 34.8443 40.9076 34.7903 41.3009 34.9452L42.9264 35.5834C43.1921 35.6875 43.486 35.6946 43.7564 35.6036C44.0269 35.5125 44.2566 35.3291 44.4052 35.0855L45.7997 32.7944C45.9481 32.5509 46.0058 32.2628 45.9628 31.9809C45.9197 31.699 45.7785 31.4413 45.5641 31.2533ZM35.3574 32.468C32.8921 32.468 30.8935 30.4693 30.8935 28.005C30.8935 25.5397 32.8921 23.5411 35.3574 23.5411C37.8227 23.5411 39.8213 25.5397 39.8213 28.005C39.8212 30.4693 37.8227 32.468 35.3574 32.468Z" fill="url(#paint9_linear_205_53)"/>
<path d="M35.3574 21.0354C31.5087 21.0354 28.3879 24.1553 28.3879 28.0049C28.3879 31.8536 31.5087 34.9734 35.3574 34.9734C39.2061 34.9734 42.3269 31.8535 42.3269 28.0049C42.3269 24.1553 39.2061 21.0354 35.3574 21.0354ZM35.3574 32.4679C32.8921 32.4679 30.8935 30.4692 30.8935 28.0049C30.8935 25.5396 32.8921 23.541 35.3574 23.541C37.8227 23.541 39.8213 25.5396 39.8213 28.0049C39.8212 30.4692 37.8227 32.4679 35.3574 32.4679Z" fill="url(#paint10_linear_205_53)"/>
<path d="M39.8212 28.005C39.8212 30.4693 37.8226 32.4679 35.3573 32.4679C32.892 32.4679 30.8934 30.4693 30.8934 28.005C30.8934 27.8606 30.9008 27.718 30.9143 27.5771H26.8427C26.8352 27.7196 26.8314 27.8623 26.8311 28.005C26.8311 28.3406 26.8513 28.6715 26.8889 28.997C26.9375 29.416 26.7715 29.8313 26.4552 30.109L25.1506 31.2531C24.9362 31.4412 24.795 31.6989 24.7519 31.9808C24.7089 32.2627 24.7666 32.5508 24.915 32.7943L26.3095 35.0854C26.4581 35.329 26.6878 35.5124 26.9583 35.6034C27.2287 35.6945 27.5226 35.6873 27.7883 35.5832L29.4138 34.9451C29.8071 34.7902 30.2499 34.8442 30.6001 35.0808C30.9787 35.3359 31.3773 35.56 31.792 35.751C32.1744 35.927 32.4494 36.2772 32.5218 36.6925L32.8225 38.4116C32.8716 38.6925 33.0183 38.947 33.2366 39.1305C33.4549 39.3139 33.731 39.4145 34.0161 39.4145H36.6987C36.9838 39.4145 37.2599 39.314 37.4782 39.1305C37.6965 38.9471 37.8432 38.6925 37.8923 38.4116L38.193 36.6925C38.2654 36.2772 38.5404 35.9271 38.9228 35.751C39.3375 35.5601 39.7361 35.3359 40.1147 35.0808C40.4648 34.8442 40.9077 34.7902 41.301 34.9451L42.9265 35.5832C43.1922 35.6873 43.4861 35.6945 43.7565 35.6034C44.027 35.5124 44.2567 35.329 44.4053 35.0854L45.7998 32.7943C45.9481 32.5508 46.0058 32.2627 45.9628 31.9808C45.9197 31.6989 45.7785 31.4412 45.5642 31.2531L44.2596 30.109C43.9433 29.8313 43.7773 29.4159 43.8259 28.997C43.8635 28.6715 43.8837 28.3405 43.8837 28.005C43.8837 27.8616 43.8793 27.719 43.8721 27.5771H39.8004C39.8138 27.718 39.8212 27.8606 39.8212 28.005Z" fill="url(#paint11_linear_205_53)"/>
<path d="M7.08524 8.77515H5.25524C4.73455 8.77515 4.31259 9.19721 4.31259 9.71779C4.31259 10.2384 4.73465 10.6604 5.25524 10.6604H7.08524C7.60583 10.6604 8.02789 10.2384 8.02789 9.71779C8.02789 9.46779 7.92857 9.22802 7.75179 9.05124C7.57501 8.87446 7.33524 8.77515 7.08524 8.77515Z" fill="url(#paint12_linear_205_53)"/>
<path d="M12.1833 8.77515H10.3533C9.83261 8.77515 9.41064 9.19721 9.41064 9.71779C9.41064 10.2384 9.8327 10.6604 10.3533 10.6604H12.1833C12.7039 10.6604 13.1259 10.2384 13.1259 9.71779C13.1259 9.46779 13.0266 9.22802 12.8498 9.05124C12.6731 8.87446 12.4333 8.77515 12.1833 8.77515Z" fill="url(#paint13_linear_205_53)"/>
<path d="M17.2813 8.77515H15.4513C14.9306 8.77515 14.5087 9.19721 14.5087 9.71779C14.5087 10.2384 14.9307 10.6604 15.4513 10.6604H17.2813C17.8019 10.6604 18.224 10.2384 18.224 9.71779C18.224 9.46779 18.1246 9.22802 17.9479 9.05124C17.7711 8.87446 17.5313 8.77515 17.2813 8.77515Z" fill="url(#paint14_linear_205_53)"/>
<path d="M11.5879 23.5651H6.73602C5.39759 23.5651 4.31259 22.4801 4.31259 21.1417C4.31259 19.8033 5.39759 18.7183 6.73602 18.7183H11.5879C12.9263 18.7183 14.0113 19.8033 14.0113 21.1417C14.0113 22.4801 12.9263 23.5651 11.5879 23.5651Z" fill="url(#paint15_linear_205_53)"/>
<path d="M11.5879 23.5651H6.73602C5.39759 23.5651 4.31259 22.4801 4.31259 21.1417C4.31259 19.8033 5.39759 18.7183 6.73602 18.7183H11.5879C12.9263 18.7183 14.0113 19.8033 14.0113 21.1417C14.0113 22.4801 12.9263 23.5651 11.5879 23.5651Z" fill="url(#paint16_linear_205_53)"/>
<path d="M11.5879 23.5651C12.9263 23.5651 14.0113 22.4801 14.0113 21.1417C14.0113 19.8033 12.9263 18.7183 11.5879 18.7183C10.2495 18.7183 9.16446 19.8033 9.16446 21.1417C9.16446 22.4801 10.2495 23.5651 11.5879 23.5651Z" fill="url(#paint17_linear_205_53)"/>
<path d="M9.16446 21.1418C9.16446 22.4802 10.2495 23.5652 11.5879 23.5652C12.9263 23.5652 14.0113 22.4802 14.0113 21.1418C14.0113 20.8519 13.9602 20.5741 13.8669 20.3164H9.30887C9.21307 20.581 9.1642 20.8604 9.16446 21.1418Z" fill="url(#paint18_linear_205_53)"/>
<path d="M9.87427 22.8554C10.8206 23.8017 12.3552 23.8017 13.3015 22.8554C14.2479 21.909 14.2479 20.3745 13.3015 19.4281C13.1027 19.2289 12.8706 19.0659 12.6157 18.9465L9.3927 22.1696C9.51208 22.4245 9.67505 22.6565 9.87427 22.8554Z" fill="url(#paint19_linear_205_53)"/>
<path d="M11.5879 30.4279H6.73602C5.39759 30.4279 4.31259 29.3429 4.31259 28.0045C4.31259 26.6661 5.39759 25.5811 6.73602 25.5811H11.5879C12.9263 25.5811 14.0113 26.6661 14.0113 28.0045C14.0113 29.3429 12.9263 30.4279 11.5879 30.4279Z" fill="url(#paint20_linear_205_53)"/>
<path d="M11.5879 30.4279H6.73602C5.39759 30.4279 4.31259 29.3429 4.31259 28.0045C4.31259 26.6661 5.39759 25.5811 6.73602 25.5811H11.5879C12.9263 25.5811 14.0113 26.6661 14.0113 28.0045C14.0113 29.3429 12.9263 30.4279 11.5879 30.4279Z" fill="url(#paint21_linear_205_53)"/>
<path d="M6.73602 30.4279C8.07445 30.4279 9.15945 29.3429 9.15945 28.0045C9.15945 26.6661 8.07445 25.5811 6.73602 25.5811C5.3976 25.5811 4.31259 26.6661 4.31259 28.0045C4.31259 29.3429 5.3976 30.4279 6.73602 30.4279Z" fill="url(#paint22_linear_205_53)"/>
<path d="M4.31259 28.0046C4.31259 29.343 5.39759 30.428 6.73602 30.428C8.07446 30.428 9.15946 29.343 9.15946 28.0046C9.15946 27.7147 9.10838 27.4368 9.01504 27.1792H4.457C4.36121 27.4438 4.31233 27.7232 4.31259 28.0046Z" fill="url(#paint23_linear_205_53)"/>
<path d="M5.0224 29.7181C5.96877 30.6645 7.50328 30.6645 8.44966 29.7181C9.39603 28.7718 9.39603 27.2373 8.44966 26.2909C8.25084 26.0917 8.01876 25.9287 7.76387 25.8093L4.54083 29.0324C4.66021 29.2872 4.82318 29.5193 5.0224 29.7181Z" fill="url(#paint24_linear_205_53)"/>
<path d="M11.5879 37.2907H6.73602C5.39759 37.2907 4.31259 36.2057 4.31259 34.8673C4.31259 33.5288 5.39759 32.4438 6.73602 32.4438H11.5879C12.9263 32.4438 14.0113 33.5288 14.0113 34.8673C14.0113 36.2057 12.9263 37.2907 11.5879 37.2907Z" fill="url(#paint25_linear_205_53)"/>
<path d="M11.5879 32.4438H9.02133V37.2907H11.5879C12.9263 37.2907 14.0113 36.2057 14.0113 34.8673C14.0113 33.5288 12.9263 32.4438 11.5879 32.4438Z" fill="url(#paint26_linear_205_53)"/>
<path d="M9.02132 32.4438H6.73602C5.39759 32.4438 4.31259 33.5288 4.31259 34.8673C4.31259 36.2057 5.39759 37.2907 6.73602 37.2907H9.02132V32.4438Z" fill="url(#paint27_linear_205_53)"/>
<path d="M9.1619 37.2907C10.5003 37.2907 11.5853 36.2057 11.5853 34.8673C11.5853 33.5289 10.5003 32.4438 9.1619 32.4438C7.82347 32.4438 6.73846 33.5289 6.73846 34.8673C6.73846 36.2057 7.82347 37.2907 9.1619 37.2907Z" fill="url(#paint28_linear_205_53)"/>
<path d="M6.73847 34.8674C6.73847 36.2058 7.82346 37.2908 9.1619 37.2908C10.5003 37.2908 11.5853 36.2058 11.5853 34.8674C11.5853 34.5775 11.5342 34.2996 11.4409 34.042H6.88288C6.78708 34.3066 6.73821 34.5859 6.73847 34.8674Z" fill="url(#paint29_linear_205_53)"/>
<path d="M7.44827 36.5809C8.39465 37.5273 9.92916 37.5273 10.8755 36.5809C11.8219 35.6346 11.8219 34.1001 10.8755 33.1537C10.6767 32.9545 10.4446 32.7915 10.1897 32.6721L6.96671 35.8952C7.08616 36.15 7.24912 36.3821 7.44827 36.5809Z" fill="url(#paint30_linear_205_53)"/>
<path d="M23.5992 28.7666H15.7687C15.248 28.7666 14.826 29.1887 14.826 29.7092C14.826 30.2298 15.2481 30.6519 15.7687 30.6519H23.5992C24.1197 30.6519 24.5418 30.2298 24.5418 29.7092C24.5418 29.4592 24.4425 29.2195 24.2657 29.0427C24.0889 28.8659 23.8492 28.7666 23.5992 28.7666Z" fill="#FE9738"/>
<path d="M15.7688 27.2427H18.8734C19.394 27.2427 19.816 26.8207 19.816 26.3001C19.816 26.1763 19.7916 26.0537 19.7443 25.9393C19.6969 25.825 19.6275 25.721 19.5399 25.6335C19.4524 25.546 19.3485 25.4765 19.2341 25.4292C19.1197 25.3818 18.9972 25.3574 18.8734 25.3574H15.7688C15.2481 25.3574 14.8261 25.7795 14.8261 26.3001C14.8261 26.8207 15.2481 27.2427 15.7688 27.2427Z" fill="#FE9738"/>
<path d="M23.5821 25.3574H21.7521C21.2315 25.3574 20.8094 25.7795 20.8094 26.3001C20.8094 26.5501 20.9088 26.7898 21.0855 26.9666C21.2623 27.1434 21.5021 27.2427 21.7521 27.2427H23.5821C23.8321 27.2427 24.0719 27.1434 24.2486 26.9666C24.4254 26.7898 24.5247 26.5501 24.5247 26.3001C24.5248 26.1763 24.5004 26.0537 24.453 25.9393C24.4056 25.8249 24.3362 25.721 24.2487 25.6335C24.1611 25.546 24.0572 25.4765 23.9428 25.4292C23.8285 25.3818 23.7059 25.3574 23.5821 25.3574Z" fill="#FE9738"/>
<path d="M23.5821 33.9246H20.4775C19.9569 33.9246 19.5349 34.3466 19.5349 34.8672C19.5349 35.3878 19.9569 35.8099 20.4775 35.8099H23.5821C24.1028 35.8099 24.5248 35.3878 24.5248 34.8672C24.5248 34.3466 24.1028 33.9246 23.5821 33.9246Z" fill="#FE9738"/>
<path d="M17.5988 33.9246H15.7688C15.5188 33.9246 15.279 34.0239 15.1022 34.2007C14.9254 34.3774 14.8261 34.6172 14.8261 34.8672C14.8261 35.1172 14.9254 35.357 15.1022 35.5338C15.279 35.7105 15.5188 35.8099 15.7688 35.8099H17.5988C17.8488 35.8099 18.0885 35.7105 18.2653 35.5338C18.4421 35.357 18.5414 35.1172 18.5414 34.8672C18.5414 34.3466 18.1193 33.9246 17.5988 33.9246Z" fill="#FE9738"/>
<path d="M15.7688 22.0845H23.5992C24.1198 22.0845 24.5419 21.6625 24.5419 21.1419C24.5419 20.6213 24.1198 20.1992 23.5992 20.1992H15.7688C15.2481 20.1992 14.8261 20.6213 14.8261 21.1419C14.8261 21.6625 15.2481 22.0845 15.7688 22.0845Z" fill="#FE9738"/>
</g>
<defs>
<linearGradient id="paint0_linear_205_53" x1="23.3172" y1="6.72492" x2="23.9053" y2="12.607" gradientUnits="userSpaceOnUse">
<stop stop-color="#F9F5F3"/>
<stop offset="1" stop-color="#EFE2DD"/>
</linearGradient>
<linearGradient id="paint1_linear_205_53" x1="44.9486" y1="24.9999" x2="50.4388" y2="24.9999" gradientUnits="userSpaceOnUse">
<stop stop-color="#9E9797" stop-opacity="0"/>
<stop offset="0.356" stop-color="#9B9494" stop-opacity="0.356"/>
<stop offset="0.628" stop-color="#928B8B" stop-opacity="0.629"/>
<stop offset="0.872" stop-color="#827A7A" stop-opacity="0.872"/>
<stop offset="1" stop-color="#766E6E"/>
</linearGradient>
<linearGradient id="paint2_linear_205_53" x1="6.60017" y1="16.9394" x2="23.639" y2="45.926" gradientUnits="userSpaceOnUse">
<stop stop-color="#FEE97D"/>
<stop offset="1" stop-color="#FEA613"/>
</linearGradient>
<linearGradient id="paint3_linear_205_53" x1="44.5564" y1="28.0046" x2="49.6545" y2="28.0046" gradientUnits="userSpaceOnUse">
<stop stop-color="#FE9738" stop-opacity="0"/>
<stop offset="1" stop-color="#FE9738"/>
</linearGradient>
<linearGradient id="paint4_linear_205_53" x1="25.1447" y1="41.0519" x2="25.1447" y2="44.0821" gradientUnits="userSpaceOnUse">
<stop stop-color="#FE9738" stop-opacity="0"/>
<stop offset="1" stop-color="#FE9738"/>
</linearGradient>
<linearGradient id="paint5_linear_205_53" x1="36.7879" y1="29.435" x2="32.3782" y2="25.0253" gradientUnits="userSpaceOnUse">
<stop stop-color="#FE9738" stop-opacity="0"/>
<stop offset="1" stop-color="#FE9738"/>
</linearGradient>
<linearGradient id="paint6_linear_205_53" x1="39.5919" y1="35.6179" x2="34.5593" y2="28.6898" gradientUnits="userSpaceOnUse">
<stop stop-color="#FE9738" stop-opacity="0"/>
<stop offset="1" stop-color="#FE9738"/>
</linearGradient>
<linearGradient id="paint7_linear_205_53" x1="47.0435" y1="36.2203" x2="40.5729" y2="31.9065" gradientUnits="userSpaceOnUse">
<stop stop-color="#FE9738" stop-opacity="0"/>
<stop offset="1" stop-color="#FE9738"/>
</linearGradient>
<linearGradient id="paint8_linear_205_53" x1="42.004" y1="22.1668" x2="34.8145" y2="17.5262" gradientUnits="userSpaceOnUse">
<stop stop-color="#FE9738" stop-opacity="0"/>
<stop offset="1" stop-color="#FE9738"/>
</linearGradient>
<linearGradient id="paint9_linear_205_53" x1="28.4557" y1="21.1031" x2="39.9356" y2="32.583" gradientUnits="userSpaceOnUse">
<stop stop-color="#F9F5F3"/>
<stop offset="1" stop-color="#EFE2DD"/>
</linearGradient>
<linearGradient id="paint10_linear_205_53" x1="40.7345" y1="33.3817" x2="32.0694" y2="24.7165" gradientUnits="userSpaceOnUse">
<stop stop-color="#F9F5F3"/>
<stop offset="1" stop-color="#EFE2DD"/>
</linearGradient>
<linearGradient id="paint11_linear_205_53" x1="35.3574" y1="32.4668" x2="35.3574" y2="40.9632" gradientUnits="userSpaceOnUse">
<stop stop-color="#9E9797" stop-opacity="0"/>
<stop offset="0.356" stop-color="#9B9494" stop-opacity="0.356"/>
<stop offset="0.628" stop-color="#928B8B" stop-opacity="0.629"/>
<stop offset="0.872" stop-color="#827A7A" stop-opacity="0.872"/>
<stop offset="1" stop-color="#766E6E"/>
</linearGradient>
<linearGradient id="paint12_linear_205_53" x1="5.41818" y1="8.21348" x2="6.69269" y2="10.7625" gradientUnits="userSpaceOnUse">
<stop stop-color="#D9B1EE"/>
<stop offset="0.123" stop-color="#DBA3E3"/>
<stop offset="0.351" stop-color="#E381C8"/>
<stop offset="0.659" stop-color="#EF499B"/>
<stop offset="1" stop-color="#FE0364"/>
</linearGradient>
<linearGradient id="paint13_linear_205_53" x1="10.5162" y1="8.21348" x2="11.7907" y2="10.7625" gradientUnits="userSpaceOnUse">
<stop stop-color="#FEF48B"/>
<stop offset="1" stop-color="#FFBF51"/>
</linearGradient>
<linearGradient id="paint14_linear_205_53" x1="15.6143" y1="8.21348" x2="16.8888" y2="10.7625" gradientUnits="userSpaceOnUse">
<stop stop-color="#C9F6B0"/>
<stop offset="1" stop-color="#0BB494"/>
</linearGradient>
<linearGradient id="paint15_linear_205_53" x1="9.16191" y1="22.3968" x2="9.16191" y2="19.8436" gradientUnits="userSpaceOnUse">
<stop stop-color="#F9F5F3"/>
<stop offset="1" stop-color="#EFE2DD"/>
</linearGradient>
<linearGradient id="paint16_linear_205_53" x1="7.05642" y1="21.1417" x2="11.3615" y2="21.1417" gradientUnits="userSpaceOnUse">
<stop stop-color="#9E9797" stop-opacity="0"/>
<stop offset="0.356" stop-color="#9B9494" stop-opacity="0.356"/>
<stop offset="0.628" stop-color="#928B8B" stop-opacity="0.629"/>
<stop offset="0.872" stop-color="#827A7A" stop-opacity="0.872"/>
<stop offset="1" stop-color="#766E6E"/>
</linearGradient>
<linearGradient id="paint17_linear_205_53" x1="10.6515" y1="20.2053" x2="12.8546" y2="22.4084" gradientUnits="userSpaceOnUse">
<stop stop-color="#C9F6B0"/>
<stop offset="1" stop-color="#0BB494"/>
</linearGradient>
<linearGradient id="paint18_linear_205_53" x1="11.5879" y1="21.1725" x2="11.5879" y2="24.0234" gradientUnits="userSpaceOnUse">
<stop stop-color="#016A74" stop-opacity="0"/>
<stop offset="1" stop-color="#016A74"/>
</linearGradient>
<linearGradient id="paint19_linear_205_53" x1="11.6247" y1="21.1518" x2="13.7467" y2="23.2737" gradientUnits="userSpaceOnUse">
<stop stop-color="#016A74" stop-opacity="0"/>
<stop offset="1" stop-color="#016A74"/>
</linearGradient>
<linearGradient id="paint20_linear_205_53" x1="9.16191" y1="29.2596" x2="9.16191" y2="26.7063" gradientUnits="userSpaceOnUse">
<stop stop-color="#F9F5F3"/>
<stop offset="1" stop-color="#EFE2DD"/>
</linearGradient>
<linearGradient id="paint21_linear_205_53" x1="11.076" y1="28.0045" x2="7.54632" y2="28.0045" gradientUnits="userSpaceOnUse">
<stop stop-color="#9E9797" stop-opacity="0"/>
<stop offset="0.356" stop-color="#9B9494" stop-opacity="0.356"/>
<stop offset="0.628" stop-color="#928B8B" stop-opacity="0.629"/>
<stop offset="0.872" stop-color="#827A7A" stop-opacity="0.872"/>
<stop offset="1" stop-color="#766E6E"/>
</linearGradient>
<linearGradient id="paint22_linear_205_53" x1="5.79965" y1="27.0681" x2="8.00269" y2="29.2712" gradientUnits="userSpaceOnUse">
<stop stop-color="#D9B1EE"/>
<stop offset="0.123" stop-color="#DBA3E3"/>
<stop offset="0.351" stop-color="#E381C8"/>
<stop offset="0.659" stop-color="#EF499B"/>
<stop offset="1" stop-color="#FE0364"/>
</linearGradient>
<linearGradient id="paint23_linear_205_53" x1="6.73602" y1="28.0353" x2="6.73602" y2="30.8862" gradientUnits="userSpaceOnUse">
<stop stop-color="#A82975" stop-opacity="0"/>
<stop offset="1" stop-color="#A82975"/>
</linearGradient>
<linearGradient id="paint24_linear_205_53" x1="6.77287" y1="28.0146" x2="8.89474" y2="30.1365" gradientUnits="userSpaceOnUse">
<stop stop-color="#A82975" stop-opacity="0"/>
<stop offset="1" stop-color="#A82975"/>
</linearGradient>
<linearGradient id="paint25_linear_205_53" x1="9.16191" y1="36.1224" x2="9.16191" y2="33.5691" gradientUnits="userSpaceOnUse">
<stop stop-color="#F9F5F3"/>
<stop offset="1" stop-color="#EFE2DD"/>
</linearGradient>
<linearGradient id="paint26_linear_205_53" x1="13.9682" y1="34.8673" x2="9.13976" y2="34.8673" gradientUnits="userSpaceOnUse">
<stop stop-color="#9E9797" stop-opacity="0"/>
<stop offset="0.356" stop-color="#9B9494" stop-opacity="0.356"/>
<stop offset="0.628" stop-color="#928B8B" stop-opacity="0.629"/>
<stop offset="0.872" stop-color="#827A7A" stop-opacity="0.872"/>
<stop offset="1" stop-color="#766E6E"/>
</linearGradient>
<linearGradient id="paint27_linear_205_53" x1="5.63485" y1="34.8673" x2="9.31651" y2="34.8673" gradientUnits="userSpaceOnUse">
<stop stop-color="#9E9797" stop-opacity="0"/>
<stop offset="0.356" stop-color="#9B9494" stop-opacity="0.356"/>
<stop offset="0.628" stop-color="#928B8B" stop-opacity="0.629"/>
<stop offset="0.872" stop-color="#827A7A" stop-opacity="0.872"/>
<stop offset="1" stop-color="#766E6E"/>
</linearGradient>
<linearGradient id="paint28_linear_205_53" x1="8.22552" y1="33.9309" x2="10.4287" y2="36.1339" gradientUnits="userSpaceOnUse">
<stop stop-color="#A6E7F0"/>
<stop offset="0.171" stop-color="#90E2ED"/>
<stop offset="0.529" stop-color="#56D7E7"/>
<stop offset="1" stop-color="#02C7DD"/>
</linearGradient>
<linearGradient id="paint29_linear_205_53" x1="9.1619" y1="34.8981" x2="9.1619" y2="37.749" gradientUnits="userSpaceOnUse">
<stop stop-color="#0199B1" stop-opacity="0"/>
<stop offset="1" stop-color="#0199B1"/>
</linearGradient>
<linearGradient id="paint30_linear_205_53" x1="9.19879" y1="34.8774" x2="11.3207" y2="36.9993" gradientUnits="userSpaceOnUse">
<stop stop-color="#0199B1" stop-opacity="0"/>
<stop offset="1" stop-color="#0199B1"/>
</linearGradient>
<clipPath id="clip0_205_53">
<rect width="50" height="50" fill="white" transform="translate(0.144653)"/>
</clipPath>
</defs>
</svg>
