<svg width="51" height="50" viewBox="0 0 51 50" fill="none" xmlns="http://www.w3.org/2000/svg">
<g clip-path="url(#clip0_205_108)">
<path d="M25.1172 4.03763V25.2911C25.1172 26.344 24.2633 27.1979 23.2094 27.1979H3.67505C2.37112 27.1979 1.31328 26.1401 1.31328 24.8352V4.0792C1.31328 3.00263 2.18603 2.12988 3.2626 2.12988H23.2094C24.263 2.12978 25.1172 2.984 25.1172 4.03763Z" fill="url(#paint0_linear_205_108)"/>
<path d="M17.5956 8.03718L14.1398 4.5813V8.03718H17.5956Z" fill="url(#paint1_linear_205_108)"/>
<path d="M25.1169 25.2908V12.302H1.31298V24.8356C1.31298 26.1403 2.37063 27.198 3.67534 27.198H23.2097C24.2631 27.198 25.1169 26.3442 25.1169 25.2908Z" fill="url(#paint2_linear_205_108)"/>
<path d="M23.2098 2.13037H20.3924V27.198H23.2098C24.2631 27.198 25.1169 26.3441 25.1169 25.2909V4.03763C25.1169 2.98429 24.2631 2.13037 23.2098 2.13037Z" fill="url(#paint3_linear_205_108)"/>
<path d="M27.9345 7.23291H15.7113C15.0995 7.23291 14.6035 6.73693 14.6035 6.12507V5.6388C14.6035 4.7584 13.8898 4.04468 13.0094 4.04468H7.63191C6.75152 4.04468 6.03779 4.7584 6.03779 5.6388V24.8356C6.03779 26.1403 4.98014 27.1979 3.67544 27.1979H27.9346C28.9879 27.1979 29.8417 26.344 29.8417 25.2908V9.14007C29.8416 8.08674 28.9878 7.23291 27.9345 7.23291Z" fill="url(#paint4_linear_205_108)"/>
<path d="M6.03779 15.8259V24.8356C6.03779 26.1403 4.98014 27.198 3.67544 27.198H27.9346C28.9879 27.198 29.8417 26.3441 29.8417 25.2908V15.8259H6.03779Z" fill="url(#paint5_linear_205_108)"/>
<path d="M29.8417 9.14012V25.2906C29.8417 26.3439 28.9881 27.1982 27.9348 27.1982H25.1171V7.23315H27.9348C28.9881 7.23315 29.8417 8.08678 29.8417 9.14012Z" fill="url(#paint6_linear_205_108)"/>
<path d="M25.1169 25.2908V7.23291H13.9551V27.1979H23.2098C24.2631 27.1979 25.1169 26.3441 25.1169 25.2908Z" fill="url(#paint7_linear_205_108)"/>
<path d="M29.8416 15.8259V9.14007C29.8416 8.08674 28.9877 7.23291 27.9345 7.23291H15.7113C15.0995 7.23291 14.6035 6.73693 14.6035 6.12507V5.6388C14.6035 4.7584 13.8898 4.04468 13.0094 4.04468H7.63191C6.75152 4.04468 6.03779 4.7584 6.03779 5.6388V15.8259H29.8416Z" fill="url(#paint8_linear_205_108)"/>
<path d="M43.0043 21.0493V42.3028C43.0043 43.3557 42.1503 44.2096 41.0964 44.2096H21.5621C20.2582 44.2096 19.2003 43.1518 19.2003 41.8469V21.0909C19.2003 20.0143 20.0731 19.1416 21.1497 19.1416H41.0964C42.15 19.1415 43.0043 19.9957 43.0043 21.0493Z" fill="url(#paint9_linear_205_108)"/>
<path d="M35.4827 25.0489L32.0268 21.593V25.0489H35.4827Z" fill="url(#paint10_linear_205_108)"/>
<path d="M43.004 42.3025V29.3137H19.2V41.8473C19.2 43.1521 20.2577 44.2097 21.5624 44.2097H41.0967C42.1501 44.2097 43.004 43.3558 43.004 42.3025Z" fill="url(#paint11_linear_205_108)"/>
<path d="M41.0968 19.1421H38.2795V44.2097H41.0968C42.1501 44.2097 43.004 43.3558 43.004 42.3026V21.0492C43.004 19.996 42.1501 19.1421 41.0968 19.1421Z" fill="url(#paint12_linear_205_108)"/>
<path d="M45.8215 24.2446H33.5984C32.9865 24.2446 32.4905 23.7487 32.4905 23.1368V22.6505C32.4905 21.7701 31.7768 21.0564 30.8964 21.0564H25.519C24.6386 21.0564 23.9249 21.7701 23.9249 22.6505V41.8473C23.9249 43.152 22.8672 44.2096 21.5625 44.2096H45.8216C46.8749 44.2096 47.7288 43.3557 47.7288 42.3025V26.1518C47.7287 25.0985 46.8748 24.2446 45.8215 24.2446Z" fill="url(#paint13_linear_205_108)"/>
<path d="M23.9248 32.8376V41.8474C23.9248 43.1521 22.8671 44.2097 21.5624 44.2097H45.8215C46.8748 44.2097 47.7287 43.3558 47.7287 42.3025V32.8376H23.9248Z" fill="url(#paint14_linear_205_108)"/>
<path d="M47.7287 26.1518V42.3023C47.7287 43.3557 46.875 44.2099 45.8217 44.2099H43.0041V24.2449H45.8217C46.875 24.2449 47.7287 25.0985 47.7287 26.1518Z" fill="url(#paint15_linear_205_108)"/>
<path d="M43.004 42.3025V24.2446H31.8422V44.2096H41.0968C42.1501 44.2096 43.004 43.3557 43.004 42.3025Z" fill="url(#paint16_linear_205_108)"/>
<path d="M47.7287 32.8377V26.1519C47.7287 25.0986 46.8748 24.2446 45.8215 24.2446H33.5984C32.9865 24.2446 32.4905 23.7487 32.4905 23.1368V22.6505C32.4905 21.7701 31.7768 21.0564 30.8964 21.0564H25.519C24.6386 21.0564 23.9249 21.7701 23.9249 22.6505V32.8376H47.7287V32.8377Z" fill="url(#paint17_linear_205_108)"/>
<path d="M30.6718 5.07106C37.1289 5.07106 42.5748 9.48057 44.1583 15.4463H42.9545C41.7021 15.4463 41.0069 16.8959 41.7909 17.8724L44.6386 21.4197C45.2358 22.1637 46.3684 22.1637 46.9657 21.4197L49.8133 17.8725C50.5972 16.896 49.902 15.4464 48.6498 15.4464H47.1827C45.5372 7.84371 38.7598 2.12988 30.6718 2.12988C29.8597 2.12988 29.2012 2.78831 29.2012 3.60047C29.2012 4.41263 29.8597 5.07106 30.6718 5.07106Z" fill="url(#paint18_linear_205_108)"/>
<path d="M30.6718 5.07106C37.1289 5.07106 42.5748 9.48057 44.1583 15.4463H42.9545C41.7021 15.4463 41.0069 16.8959 41.7909 17.8724L44.6386 21.4197C45.2358 22.1637 46.3684 22.1637 46.9657 21.4197L49.8133 17.8725C50.5972 16.896 49.902 15.4464 48.6498 15.4464H47.1827C45.5372 7.84371 38.7598 2.12988 30.6718 2.12988C29.8597 2.12988 29.2012 2.78831 29.2012 3.60047C29.2012 4.41263 29.8597 5.07106 30.6718 5.07106Z" fill="url(#paint19_linear_205_108)"/>
<path d="M49.8133 17.8725C50.5972 16.8959 49.902 15.4463 48.6498 15.4463H47.1827C47.1827 15.4463 47.6102 17.8704 47.7488 20.4442L49.8133 17.8725Z" fill="url(#paint20_linear_205_108)"/>
<path d="M44.1584 15.4463H42.9546C41.7022 15.4463 41.007 16.8959 41.791 17.8725L44.5487 21.3077C44.4936 17.778 44.1584 15.4463 44.1584 15.4463Z" fill="url(#paint21_linear_205_108)"/>
<path d="M19.6175 44.9289C13.1604 44.9289 7.71456 40.5193 6.13103 34.5537H7.33485C8.5872 34.5537 9.2824 33.1041 8.49838 32.1275L5.65073 28.5802C5.05348 27.8362 3.92093 27.8362 3.32357 28.5802L0.476025 32.1274C-0.307896 33.104 0.3873 34.5536 1.63955 34.5536H3.10661C4.7521 42.1562 11.5296 47.8699 19.6175 47.8699C20.4297 47.8699 21.0881 47.2115 21.0881 46.3993C21.0881 45.5872 20.4297 44.9289 19.6175 44.9289Z" fill="url(#paint22_linear_205_108)"/>
<path d="M19.6175 44.9289C13.1604 44.9289 7.71456 40.5193 6.13103 34.5537H7.33485C8.5872 34.5537 9.2824 33.1041 8.49838 32.1275L5.65073 28.5802C5.05348 27.8362 3.92093 27.8362 3.32357 28.5802L0.476025 32.1274C-0.307896 33.104 0.3873 34.5536 1.63955 34.5536H3.10661C4.7521 42.1562 11.5296 47.8699 19.6175 47.8699C20.4297 47.8699 21.0881 47.2115 21.0881 46.3993C21.0881 45.5872 20.4297 44.9289 19.6175 44.9289Z" fill="url(#paint23_linear_205_108)"/>
<path d="M0.476026 32.1274C-0.307896 33.104 0.3873 34.5536 1.63955 34.5536H3.10661C3.10661 34.5536 2.67916 32.1295 2.54054 29.5557L0.476026 32.1274Z" fill="url(#paint24_linear_205_108)"/>
<path d="M6.13093 34.5535H7.33475C8.5871 34.5535 9.2823 33.1039 8.49828 32.1273L5.74073 28.6921C5.79573 32.2218 6.13093 34.5535 6.13093 34.5535Z" fill="url(#paint25_linear_205_108)"/>
</g>
<defs>
<linearGradient id="paint0_linear_205_108" x1="4.38662" y1="5.70214" x2="20.1808" y2="21.4963" gradientUnits="userSpaceOnUse">
<stop stop-color="#FEE97D"/>
<stop offset="1" stop-color="#FEA613"/>
</linearGradient>
<linearGradient id="paint1_linear_205_108" x1="18.9335" y1="7.13581" x2="12.5364" y2="6.03287" gradientUnits="userSpaceOnUse">
<stop stop-color="#FEA613" stop-opacity="0"/>
<stop offset="1" stop-color="#E94444"/>
</linearGradient>
<linearGradient id="paint2_linear_205_108" x1="13.2149" y1="16.9979" x2="13.2149" y2="27.4535" gradientUnits="userSpaceOnUse">
<stop stop-color="#FEA613" stop-opacity="0"/>
<stop offset="1" stop-color="#E94444"/>
</linearGradient>
<linearGradient id="paint3_linear_205_108" x1="22.8235" y1="14.6642" x2="25.8628" y2="14.6642" gradientUnits="userSpaceOnUse">
<stop stop-color="#FEA613" stop-opacity="0"/>
<stop offset="1" stop-color="#E94444"/>
</linearGradient>
<linearGradient id="paint4_linear_205_108" x1="11.476" y1="3.66938" x2="20.2352" y2="27.4286" gradientUnits="userSpaceOnUse">
<stop stop-color="#FEE97D"/>
<stop offset="1" stop-color="#FEA613"/>
</linearGradient>
<linearGradient id="paint5_linear_205_108" x1="16.7586" y1="22.8513" x2="16.7586" y2="28.2507" gradientUnits="userSpaceOnUse">
<stop stop-color="#FEA613" stop-opacity="0"/>
<stop offset="1" stop-color="#E94444"/>
</linearGradient>
<linearGradient id="paint6_linear_205_108" x1="27.5482" y1="17.2156" x2="30.5875" y2="17.2156" gradientUnits="userSpaceOnUse">
<stop stop-color="#FEA613" stop-opacity="0"/>
<stop offset="1" stop-color="#E94444"/>
</linearGradient>
<linearGradient id="paint7_linear_205_108" x1="19.9326" y1="16.8753" x2="32.8031" y2="13.2835" gradientUnits="userSpaceOnUse">
<stop stop-color="#FEA613" stop-opacity="0"/>
<stop offset="1" stop-color="#E94444"/>
</linearGradient>
<linearGradient id="paint8_linear_205_108" x1="17.9343" y1="11.2857" x2="18.0441" y2="0.131932" gradientUnits="userSpaceOnUse">
<stop stop-color="white" stop-opacity="0"/>
<stop offset="1" stop-color="white"/>
</linearGradient>
<linearGradient id="paint9_linear_205_108" x1="22.2737" y1="22.7138" x2="38.0679" y2="38.508" gradientUnits="userSpaceOnUse">
<stop stop-color="#FEE97D"/>
<stop offset="1" stop-color="#FEA613"/>
</linearGradient>
<linearGradient id="paint10_linear_205_108" x1="36.8204" y1="24.1474" x2="30.4234" y2="23.0445" gradientUnits="userSpaceOnUse">
<stop stop-color="#FEA613" stop-opacity="0"/>
<stop offset="1" stop-color="#E94444"/>
</linearGradient>
<linearGradient id="paint11_linear_205_108" x1="31.102" y1="34.0096" x2="31.102" y2="44.4651" gradientUnits="userSpaceOnUse">
<stop stop-color="#FEA613" stop-opacity="0"/>
<stop offset="1" stop-color="#E94444"/>
</linearGradient>
<linearGradient id="paint12_linear_205_108" x1="40.7105" y1="31.6759" x2="43.7498" y2="31.6759" gradientUnits="userSpaceOnUse">
<stop stop-color="#FEA613" stop-opacity="0"/>
<stop offset="1" stop-color="#E94444"/>
</linearGradient>
<linearGradient id="paint13_linear_205_108" x1="29.3631" y1="20.6811" x2="38.1223" y2="44.4403" gradientUnits="userSpaceOnUse">
<stop stop-color="#FEE97D"/>
<stop offset="1" stop-color="#FEA613"/>
</linearGradient>
<linearGradient id="paint14_linear_205_108" x1="34.6455" y1="39.8629" x2="34.6455" y2="45.2625" gradientUnits="userSpaceOnUse">
<stop stop-color="#FEA613" stop-opacity="0"/>
<stop offset="1" stop-color="#E94444"/>
</linearGradient>
<linearGradient id="paint15_linear_205_108" x1="45.4352" y1="34.2273" x2="48.4745" y2="34.2273" gradientUnits="userSpaceOnUse">
<stop stop-color="#FEA613" stop-opacity="0"/>
<stop offset="1" stop-color="#E94444"/>
</linearGradient>
<linearGradient id="paint16_linear_205_108" x1="37.8197" y1="33.887" x2="50.6901" y2="30.2952" gradientUnits="userSpaceOnUse">
<stop stop-color="#FEA613" stop-opacity="0"/>
<stop offset="1" stop-color="#E94444"/>
</linearGradient>
<linearGradient id="paint17_linear_205_108" x1="35.8212" y1="28.2974" x2="35.9311" y2="17.1437" gradientUnits="userSpaceOnUse">
<stop stop-color="white" stop-opacity="0"/>
<stop offset="1" stop-color="white"/>
</linearGradient>
<linearGradient id="paint18_linear_205_108" x1="31.7034" y1="2.33684" x2="50.9213" y2="21.5548" gradientUnits="userSpaceOnUse">
<stop stop-color="#AEFFD1"/>
<stop offset="1" stop-color="#57BE92"/>
</linearGradient>
<linearGradient id="paint19_linear_205_108" x1="38.0568" y1="6.99644" x2="45.7828" y2="24.0089" gradientUnits="userSpaceOnUse">
<stop stop-color="#76CCF8"/>
<stop offset="0.833" stop-color="#518EF8"/>
<stop offset="1" stop-color="#4981F8"/>
</linearGradient>
<linearGradient id="paint20_linear_205_108" x1="48.6638" y1="16.5944" x2="48.6638" y2="14.5353" gradientUnits="userSpaceOnUse">
<stop stop-color="#09A76D" stop-opacity="0"/>
<stop offset="0.45" stop-color="#07A069" stop-opacity="0.45"/>
<stop offset="1" stop-color="#02905D"/>
</linearGradient>
<linearGradient id="paint21_linear_205_108" x1="43.0043" y1="16.5944" x2="43.0043" y2="14.5353" gradientUnits="userSpaceOnUse">
<stop stop-color="#09A76D" stop-opacity="0"/>
<stop offset="0.45" stop-color="#07A069" stop-opacity="0.45"/>
<stop offset="1" stop-color="#02905D"/>
</linearGradient>
<linearGradient id="paint22_linear_205_108" x1="1.40691" y1="30.4841" x2="19.1031" y2="48.1802" gradientUnits="userSpaceOnUse">
<stop stop-color="#AEFFD1"/>
<stop offset="1" stop-color="#57BE92"/>
</linearGradient>
<linearGradient id="paint23_linear_205_108" x1="9.00028" y1="32.8887" x2="16.7262" y2="49.9012" gradientUnits="userSpaceOnUse">
<stop stop-color="#76CCF8"/>
<stop offset="0.833" stop-color="#518EF8"/>
<stop offset="1" stop-color="#4981F8"/>
</linearGradient>
<linearGradient id="paint24_linear_205_108" x1="1.62563" y1="33.4054" x2="1.62563" y2="35.4645" gradientUnits="userSpaceOnUse">
<stop stop-color="#09A76D" stop-opacity="0"/>
<stop offset="0.45" stop-color="#07A069" stop-opacity="0.45"/>
<stop offset="1" stop-color="#02905D"/>
</linearGradient>
<linearGradient id="paint25_linear_205_108" x1="7.28524" y1="33.4053" x2="7.28524" y2="35.4644" gradientUnits="userSpaceOnUse">
<stop stop-color="#09A76D" stop-opacity="0"/>
<stop offset="0.45" stop-color="#07A069" stop-opacity="0.45"/>
<stop offset="1" stop-color="#02905D"/>
</linearGradient>
<clipPath id="clip0_205_108">
<rect width="50" height="50" fill="white" transform="translate(0.144653)"/>
</clipPath>
</defs>
</svg>
