<svg width="51" height="50" viewBox="0 0 51 50" fill="none" xmlns="http://www.w3.org/2000/svg">
<g clip-path="url(#clip0_205_320)">
<path d="M48.5107 27.5591V19.1731C48.5107 17.9893 47.5511 17.0297 46.3673 17.0297H45.7053C44.8319 17.0297 44.0525 16.497 43.7185 15.6899L43.7074 15.6632C43.3718 14.8556 43.5454 13.9265 44.1639 13.308L44.6319 12.84C45.469 12.0029 45.469 10.6458 44.6319 9.80873L38.7021 3.87892C37.865 3.04186 36.5079 3.04186 35.6708 3.87892L35.2028 4.34696C34.5844 4.96539 33.6552 5.13902 32.8476 4.80343L32.8209 4.79235C32.0139 4.45833 31.4811 3.67892 31.4811 2.80549V2.14353C31.4811 0.959608 30.5214 0 29.3376 0H20.9516C19.7678 0 18.8082 0.959608 18.8082 2.14343V2.80539C18.8082 3.67882 18.2754 4.45824 17.4684 4.79226L17.4417 4.80333C16.6341 5.13892 15.7049 4.96529 15.0865 4.34686L14.6185 3.87882C13.7814 3.04176 12.4243 3.04176 11.5872 3.87882L5.65739 9.80863C4.82033 10.6457 4.82033 12.0028 5.65739 12.8399L6.12543 13.3079C6.74386 13.9264 6.91749 14.8555 6.5819 15.6631L6.57082 15.6898C6.2368 16.4969 5.45739 17.0296 4.58396 17.0296H3.922C2.73817 17.0296 1.77856 17.9892 1.77856 19.173V27.559C1.77856 28.7428 2.73817 29.7025 3.922 29.7025H4.58396C5.45739 29.7025 6.2368 30.2352 6.57082 31.0423L6.5819 31.0689C6.91749 31.8766 6.74386 32.8057 6.12543 33.4241L5.65739 33.8922C4.82033 34.7292 4.82033 36.0864 5.65739 36.9234L11.5872 42.8532C12.4243 43.6903 13.7814 43.6903 14.6185 42.8532L15.0865 42.3852C15.7049 41.7668 16.6341 41.5931 17.4417 41.9287L17.4684 41.9398C18.2754 42.2738 18.8082 43.0532 18.8082 43.9267V44.5886C18.8082 45.7725 19.7678 46.7321 20.9516 46.7321H29.3376C30.5214 46.7321 31.481 45.7725 31.481 44.5886V43.9267C31.481 43.0532 32.0138 42.2738 32.8208 41.9398L32.8475 41.9287C33.6551 41.5931 34.5843 41.7668 35.2027 42.3852L35.6707 42.8532C36.5078 43.6903 37.8649 43.6903 38.702 42.8532L44.6318 36.9234C45.4689 36.0864 45.4689 34.7292 44.6318 33.8922L44.1638 33.4241C43.5453 32.8057 43.3717 31.8766 43.7073 31.0689L43.7184 31.0423C44.0524 30.2352 44.8318 29.7025 45.7052 29.7025H46.3672C47.5511 29.7026 48.5107 28.7428 48.5107 27.5591Z" fill="url(#paint0_linear_205_320)"/>
<path d="M48.5107 27.5591V19.1731C48.5107 17.9893 47.5511 17.0297 46.3673 17.0297H45.7053C44.8319 17.0297 44.0525 16.497 43.7185 15.6899L43.7074 15.6632C43.3718 14.8556 43.5454 13.9265 44.1639 13.308L44.6319 12.84C45.469 12.0029 45.469 10.6458 44.6319 9.80873L38.7021 3.87892C37.865 3.04186 36.5079 3.04186 35.6708 3.87892L35.2028 4.34696C34.5844 4.96539 33.6552 5.13902 32.8476 4.80343L32.8209 4.79235C32.0139 4.45833 31.4811 3.67892 31.4811 2.80549V2.14353C31.4811 0.959608 30.5214 0 29.3376 0H20.9516C19.7678 0 18.8082 0.959608 18.8082 2.14343V2.80539C18.8082 3.67882 18.2754 4.45824 17.4684 4.79226L17.4417 4.80333C16.6341 5.13892 15.7049 4.96529 15.0865 4.34686L14.6185 3.87882C13.7814 3.04176 12.4243 3.04176 11.5872 3.87882L5.65739 9.80863C4.82033 10.6457 4.82033 12.0028 5.65739 12.8399L6.12543 13.3079C6.74386 13.9264 6.91749 14.8555 6.5819 15.6631L6.57082 15.6898C6.2368 16.4969 5.45739 17.0296 4.58396 17.0296H3.922C2.73817 17.0296 1.77856 17.9892 1.77856 19.173V27.559C1.77856 28.7428 2.73817 29.7025 3.922 29.7025H4.58396C5.45739 29.7025 6.2368 30.2352 6.57082 31.0423L6.5819 31.0689C6.91749 31.8766 6.74386 32.8057 6.12543 33.4241L5.65739 33.8922C4.82033 34.7292 4.82033 36.0864 5.65739 36.9234L11.5872 42.8532C12.4243 43.6903 13.7814 43.6903 14.6185 42.8532L15.0865 42.3852C15.7049 41.7668 16.6341 41.5931 17.4417 41.9287L17.4684 41.9398C18.2754 42.2738 18.8082 43.0532 18.8082 43.9267V44.5886C18.8082 45.7725 19.7678 46.7321 20.9516 46.7321H29.3376C30.5214 46.7321 31.481 45.7725 31.481 44.5886V43.9267C31.481 43.0532 32.0138 42.2738 32.8208 41.9398L32.8475 41.9287C33.6551 41.5931 34.5843 41.7668 35.2027 42.3852L35.6707 42.8532C36.5078 43.6903 37.8649 43.6903 38.702 42.8532L44.6318 36.9234C45.4689 36.0864 45.4689 34.7292 44.6318 33.8922L44.1638 33.4241C43.5453 32.8057 43.3717 31.8766 43.7073 31.0689L43.7184 31.0423C44.0524 30.2352 44.8318 29.7025 45.7052 29.7025H46.3672C47.5511 29.7026 48.5107 28.7428 48.5107 27.5591Z" fill="url(#paint1_linear_205_320)"/>
<path d="M25.1446 39.6339C34.1291 39.6339 41.4124 32.3506 41.4124 23.3661C41.4124 14.3817 34.1291 7.09839 25.1446 7.09839C16.1602 7.09839 8.87689 14.3817 8.87689 23.3661C8.87689 32.3506 16.1602 39.6339 25.1446 39.6339Z" fill="url(#paint2_linear_205_320)"/>
<path d="M48.4989 27.7782C48.3892 28.8592 47.4764 29.7022 46.3672 29.7022H45.705C44.8319 29.7022 44.0527 30.2348 43.7185 31.0423C43.7142 31.0517 43.7111 31.06 43.707 31.0694C43.3717 31.8768 43.5451 32.8053 44.1635 33.4247L44.6324 33.8927C45.469 34.7293 45.469 36.086 44.6324 36.9237L38.7019 42.8531C37.8652 43.6908 36.5075 43.6908 35.6708 42.8531L35.2029 42.3852C34.5845 41.7669 33.6549 41.5935 32.8476 41.9287C32.8382 41.933 32.8298 41.9361 32.8204 41.9402C32.014 42.2733 31.4814 43.0536 31.4814 43.9268V44.5889C31.4814 45.7024 30.6323 46.6173 29.546 46.7218L16.0295 33.199C13.3964 30.7582 11.9561 27.2706 11.9488 23.3904C11.9405 18.8835 13.948 15.1026 17.353 12.6658C17.7749 12.3639 18.3107 12.271 18.6 12.6198C18.6961 12.7368 30.2386 24.2593 30.369 24.3847C30.7163 24.1028 30.9964 23.7469 31.1888 23.3431C31.3812 22.9393 31.4812 22.4976 31.4814 22.0503V13.2016C31.4814 12.458 32.3233 12.0192 32.929 12.4517C33.678 12.9876 34.3703 13.5986 34.995 14.2753L48.4989 27.7782Z" fill="url(#paint3_linear_205_320)"/>
<path d="M44.6318 33.8922L44.1638 33.4242C43.5453 32.8057 43.3717 31.8766 43.7073 31.069L43.7184 31.0423C44.0524 30.2352 44.8318 29.7025 45.7052 29.7025H46.3672C47.4764 29.7025 48.3889 28.8598 48.4994 27.7797L34.9951 14.2753C34.7096 13.9656 34.4092 13.67 34.0948 13.3896C36.216 15.7606 37.505 18.8908 37.505 22.3219C37.505 27.4325 34.6442 31.8756 30.437 34.1369V46.4262C31.0617 46.0517 31.4811 45.37 31.4811 44.5887V43.9267C31.4811 43.0533 32.0139 42.2739 32.8209 41.9398L32.8476 41.9288C33.6552 41.5932 34.5844 41.7668 35.2028 42.3852L35.6708 42.8533C36.5079 43.6903 37.8651 43.6903 38.7021 42.8533L44.6319 36.9235C45.469 36.0864 45.469 34.7293 44.6318 33.8922Z" fill="url(#paint4_linear_205_320)"/>
<path d="M31.1917 47.6577C31.4768 46.062 31.6203 44.4442 31.6203 42.8233V31.7566H18.6689V42.8234C18.669 44.4443 18.8124 46.0621 19.0976 47.6578C19.3394 49.0119 20.5411 49.9999 21.946 49.9999H28.3433C29.7482 49.9999 30.9498 49.0119 31.1917 47.6577Z" fill="url(#paint5_linear_205_320)"/>
<path d="M18.6689 35.185L31.2233 47.4693C31.487 45.9347 31.6198 44.3805 31.6203 42.8234V31.7566H18.6689V35.185Z" fill="url(#paint6_linear_205_320)"/>
<path d="M38.5494 23.366C38.5494 30.7692 32.5479 36.7706 25.1448 36.7707C17.7417 36.7708 11.7533 30.7937 11.74 23.3905C11.732 18.8835 13.9482 14.8933 17.3532 12.4572C17.9617 12.0219 18.808 12.4543 18.808 13.2024V22.05C18.808 22.5787 18.9471 23.0981 19.2115 23.556C19.4758 24.0139 19.856 24.3941 20.3139 24.6585L23.6387 26.5782C24.0966 26.8426 24.616 26.9818 25.1447 26.9818C25.6735 26.9818 26.1929 26.8426 26.6508 26.5782L29.9756 24.6585C30.4335 24.3941 30.8137 24.0139 31.078 23.556C31.3424 23.0981 31.4815 22.5787 31.4815 22.05V13.2021C31.4815 12.4578 32.3236 12.0195 32.9293 12.4521C36.332 14.8833 38.5494 18.8659 38.5494 23.366Z" fill="url(#paint7_linear_205_320)"/>
<path d="M38.5494 23.366C38.5494 30.7692 32.5479 36.7706 25.1448 36.7707C17.7417 36.7708 11.7533 30.7937 11.74 23.3905C11.732 18.8835 13.9482 14.8933 17.3532 12.4572C17.9617 12.0219 18.808 12.4543 18.808 13.2024V22.05C18.808 22.5787 18.9471 23.0981 19.2115 23.556C19.4758 24.0139 19.856 24.3941 20.3139 24.6585L23.6387 26.5782C24.0966 26.8426 24.616 26.9818 25.1447 26.9818C25.6735 26.9818 26.1929 26.8426 26.6508 26.5782L29.9756 24.6585C30.4335 24.3941 30.8137 24.0139 31.078 23.556C31.3424 23.0981 31.4815 22.5787 31.4815 22.05V13.2021C31.4815 12.4578 32.3236 12.0195 32.9293 12.4521C36.332 14.8833 38.5494 18.8659 38.5494 23.366Z" fill="url(#paint8_linear_205_320)"/>
<path d="M15.2246 24.4951C15.2246 25.3228 15.4424 26.1358 15.8562 26.8526C16.2701 27.5694 16.8652 28.1647 17.582 28.5785L22.7869 31.5837C23.5037 31.9976 24.3169 32.2155 25.1446 32.2155C25.9723 32.2155 26.7855 31.9976 27.5023 31.5837L32.7072 28.5785C33.424 28.1647 34.0192 27.5694 34.433 26.8526C34.8468 26.1359 35.0647 25.3228 35.0647 24.4951V14.3521C34.4222 13.6449 33.7063 13.0079 32.9291 12.4521C32.3235 12.0194 31.4813 12.4578 31.4813 13.2021V22.0501C31.4813 22.5788 31.3422 23.0982 31.0778 23.556C30.8135 24.0139 30.4333 24.3941 29.9754 24.6585L26.6506 26.5782C26.1927 26.8426 25.6733 26.9818 25.1446 26.9818C24.6158 26.9818 24.0964 26.8426 23.6385 26.5782L20.3137 24.6585C19.8558 24.3941 19.4756 24.0139 19.2113 23.556C18.9469 23.0982 18.8078 22.5788 18.8078 22.0501V13.2024C18.8078 12.4542 17.9615 12.0218 17.353 12.4572C16.5785 13.0119 15.865 13.6471 15.2245 14.3521L15.2246 24.4951Z" fill="url(#paint9_linear_205_320)"/>
<path d="M15.2246 24.4951C15.2246 25.3228 15.4424 26.1358 15.8562 26.8526C16.2701 27.5694 16.8652 28.1647 17.582 28.5785L22.7869 31.5837C23.5037 31.9976 24.3169 32.2155 25.1446 32.2155C25.9723 32.2155 26.7855 31.9976 27.5023 31.5837L32.7072 28.5785C33.424 28.1647 34.0192 27.5694 34.433 26.8526C34.8468 26.1359 35.0647 25.3228 35.0647 24.4951V14.3521C34.4222 13.6449 33.7063 13.0079 32.9291 12.4521C32.3235 12.0194 31.4813 12.4578 31.4813 13.2021V22.0501C31.4813 22.5788 31.3422 23.0982 31.0778 23.556C30.8135 24.0139 30.4333 24.3941 29.9754 24.6585L26.6506 26.5782C26.1927 26.8426 25.6733 26.9818 25.1446 26.9818C24.6158 26.9818 24.0964 26.8426 23.6385 26.5782L20.3137 24.6585C19.8558 24.3941 19.4756 24.0139 19.2113 23.556C18.9469 23.0982 18.8078 22.5788 18.8078 22.0501V13.2024C18.8078 12.4542 17.9615 12.0218 17.353 12.4572C16.5785 13.0119 15.865 13.6471 15.2245 14.3521L15.2246 24.4951Z" fill="url(#paint10_linear_205_320)"/>
</g>
<defs>
<linearGradient id="paint0_linear_205_320" x1="16.1604" y1="14.3819" x2="40.4754" y2="38.6969" gradientUnits="userSpaceOnUse">
<stop stop-color="#7FAEF4"/>
<stop offset="1" stop-color="#4C8DF1"/>
</linearGradient>
<linearGradient id="paint1_linear_205_320" x1="21.5385" y1="11.4584" x2="40.3683" y2="50.7524" gradientUnits="userSpaceOnUse">
<stop stop-color="#76CCF8"/>
<stop offset="0.833" stop-color="#518EF8"/>
<stop offset="1" stop-color="#4981F8"/>
</linearGradient>
<linearGradient id="paint2_linear_205_320" x1="22.634" y1="15.0759" x2="35.7436" y2="42.4329" gradientUnits="userSpaceOnUse">
<stop stop-color="#60A7F7"/>
<stop offset="0.833" stop-color="#518EF8"/>
<stop offset="1" stop-color="#4981F8"/>
</linearGradient>
<linearGradient id="paint3_linear_205_320" x1="27.5971" y1="27.77" x2="10.654" y2="19.3464" gradientUnits="userSpaceOnUse">
<stop stop-color="#4C8DF1" stop-opacity="0"/>
<stop offset="0.563" stop-color="#466CC8" stop-opacity="0.563"/>
<stop offset="1" stop-color="#4256AC"/>
</linearGradient>
<linearGradient id="paint4_linear_205_320" x1="41.4119" y1="34.3188" x2="28.7656" y2="28.2199" gradientUnits="userSpaceOnUse">
<stop stop-color="#4C8DF1" stop-opacity="0"/>
<stop offset="0.563" stop-color="#466CC8" stop-opacity="0.563"/>
<stop offset="1" stop-color="#4256AC"/>
</linearGradient>
<linearGradient id="paint5_linear_205_320" x1="20.3411" y1="34.3562" x2="31.3658" y2="42.5985" gradientUnits="userSpaceOnUse">
<stop stop-color="#FEE97D"/>
<stop offset="1" stop-color="#FEA613"/>
</linearGradient>
<linearGradient id="paint6_linear_205_320" x1="29.0443" y1="42.2965" x2="23.7226" y2="30.2523" gradientUnits="userSpaceOnUse">
<stop stop-color="#F9A126" stop-opacity="0"/>
<stop offset="1" stop-color="#EC4437"/>
</linearGradient>
<linearGradient id="paint7_linear_205_320" x1="20.2339" y1="18.4589" x2="37.7377" y2="35.9626" gradientUnits="userSpaceOnUse">
<stop stop-color="#FFD833"/>
<stop offset="1" stop-color="#F2B631"/>
</linearGradient>
<linearGradient id="paint8_linear_205_320" x1="15.2014" y1="15.7708" x2="30.4764" y2="33.3807" gradientUnits="userSpaceOnUse">
<stop stop-color="#FEE97D"/>
<stop offset="1" stop-color="#FEA613"/>
</linearGradient>
<linearGradient id="paint9_linear_205_320" x1="32.5864" y1="27.8312" x2="12.7412" y2="7.98597" gradientUnits="userSpaceOnUse">
<stop stop-color="#FFD833"/>
<stop offset="1" stop-color="#F2B631"/>
</linearGradient>
<linearGradient id="paint10_linear_205_320" x1="17.786" y1="15.1216" x2="30.332" y2="28.2713" gradientUnits="userSpaceOnUse">
<stop stop-color="#FEE97D"/>
<stop offset="1" stop-color="#FEA613"/>
</linearGradient>
<clipPath id="clip0_205_320">
<rect width="50" height="50" fill="white" transform="translate(0.144653)"/>
</clipPath>
</defs>
</svg>
